# xmcd CD database file
#
# Track frame offsets:
#	150
#	16291
#	32358
#	45778
#	60630
#	82305
#	96922
#	107997
#	118185
#
# Disc length: 1784 seconds
#
# Revision: 1
# Processed by: cddbd v1.5.2PL0 Copyright (c) Steve Scherf et al.
# Submitted via: CDex 1.51
#
DISCID=6d06f609
DTITLE=The New Blue Timer´s - Sweet Home
DYEAR=2000
DGENRE=Country
TTITLE0=Sweet Home Alabama
TTITLE1=Yellow River
TTITLE2=Tequila Sunrise
TTITLE3=Proud Mary
TTITLE4=Foggy Dew
TTITLE5=Cottonfields
TTITLE6=Don´t Be Cruel
TTITLE7=Lookin´ Out My Back Door
TTITLE8=Take Me Home
EXTD=YEAR: 2000
EXTT0=
EXTT1=
EXTT2=
EXTT3=
EXTT4=
EXTT5=
EXTT6=
EXTT7=
EXTT8=
PLAYORDER=
